<svg xmlns="http://www.w3.org/2000/svg" viewBox="0 0 400 200"><defs><style>.a{fill:#195dd6;}.b{fill:#fff;}</style></defs><title>Asset 5</title><rect class="a" width="400" height="200"/><path class="b" d="M111.77,76.84h-9.5l-.69-4.92-.53-3.77-3.78.52-6.1.86-3.78.52.52,3.78.43,3H59.74A21.72,21.72,0,0,0,38,98.59V126H90a20.84,20.84,0,0,0,2.87-.22,9.46,9.46,0,0,0,18.27-3.42,9.38,9.38,0,0,0-2.77-6.62,21.52,21.52,0,0,0,3.38-11.49Zm-14-4.39,5.68,40.65a8.2,8.2,0,0,0-1.77-.19,9.39,9.39,0,0,0-4.3,1L91.69,73.3ZM87.09,120.72H77L71.63,98.23l-5.42,22.49H56.13L48.08,87.09h8.83l4.34,24.37,5.91-24.37h8.9l5.88,24.37,4.4-24.37h3.45l.2,1.43,1.77,12.63Zm20.17,2.69a5.62,5.62,0,0,1-5.55,4.63,5.53,5.53,0,0,1-5-3.12A5.11,5.11,0,0,1,96,122.4,5.57,5.57,0,0,1,98,118.16a5.5,5.5,0,0,1,3.75-1.44,5.22,5.22,0,0,1,2.36.55,5.56,5.56,0,0,1,3.32,5.13A3.68,3.68,0,0,1,107.26,123.41Z"/><path class="b" d="M139.71,87.8h4.87L148.36,102l.54,2.63h.28l.71-2.63,3.51-11h4.3l3.54,11,.68,2.59h.27l.51-2.59,3.55-14.24h4.87l-6.48,24.4h-4.42l-3.82-11.76-.71-2.69h-.28l-.71,2.69-3.82,11.76h-4.43Z"/><path class="b" d="M190.06,108.18a9.31,9.31,0,0,1-3.12,3.3,8.65,8.65,0,0,1-4.79,1.26,9.23,9.23,0,0,1-3.52-.66,8.46,8.46,0,0,1-2.81-1.86,8.56,8.56,0,0,1-1.86-2.81,9.36,9.36,0,0,1-.66-3.56,8.93,8.93,0,0,1,.65-3.42,8.66,8.66,0,0,1,1.8-2.83,8.77,8.77,0,0,1,2.74-1.93A8.52,8.52,0,0,1,182,95a9.09,9.09,0,0,1,3.57.66,7.34,7.34,0,0,1,2.63,1.84,8.13,8.13,0,0,1,1.6,2.78,10.79,10.79,0,0,1,.54,3.47v.41a2.64,2.64,0,0,0,0,.38,2.1,2.1,0,0,0,0,.37H177.69a4.62,4.62,0,0,0,.57,1.76,4.27,4.27,0,0,0,1.05,1.22,4.14,4.14,0,0,0,1.38.72,5.29,5.29,0,0,0,1.53.22,4.3,4.3,0,0,0,2.54-.7,5.22,5.22,0,0,0,1.59-1.75ZM186,101.7a3,3,0,0,0-.29-1,3.62,3.62,0,0,0-.75-1,4,4,0,0,0-1.23-.78A4.6,4.6,0,0,0,182,98.6a4.09,4.09,0,0,0-2.52.82,4.37,4.37,0,0,0-1.54,2.28Z"/><path class="b" d="M221.44,87.8h3.27l-6.51,24.4H215l-5.25-16.08h-.14l-5.24,16.08h-3.2l-6.78-24.4h3.27L202.8,107h.14l5.28-15.91h2.93L216.43,107h.13Z"/><path class="b" d="M233.09,89.75a2.21,2.21,0,0,1-3.78,1.56,2.21,2.21,0,0,1,0-3.13,2.22,2.22,0,0,1,3.78,1.57Zm-.65,5.75v16.7h-3.13V95.5Z"/><path class="b" d="M239.08,95.5h3v2.32h.14a5.46,5.46,0,0,1,2.2-2,6.81,6.81,0,0,1,7.8.93,7,7,0,0,1,1.65,5v10.5h-3.14V101.91c-.06-2.73-1.44-4.09-4.12-4.09a3.9,3.9,0,0,0-3.13,1.51,5.53,5.53,0,0,0-1.26,3.63v9.24h-3.14Z"/><path class="b" d="M272.23,98.81h12a8.52,8.52,0,0,1,.17,1,11.45,11.45,0,0,1,.07,1.16,13.41,13.41,0,0,1-.72,4.43,10.18,10.18,0,0,1-2.25,3.72,11.38,11.38,0,0,1-3.92,2.69,13.48,13.48,0,0,1-5.21.95,13.24,13.24,0,0,1-5-.95,12.47,12.47,0,0,1-4.09-2.66,12.72,12.72,0,0,1-2.76-4,13.21,13.21,0,0,1,0-10.18,12.72,12.72,0,0,1,2.76-4,12.47,12.47,0,0,1,4.09-2.66,14,14,0,0,1,10.3.07,11.78,11.78,0,0,1,4,2.83l-3.17,3.1a7.78,7.78,0,0,0-6.16-2.59,8.47,8.47,0,0,0-3.17.6,7.75,7.75,0,0,0-2.62,1.68,8.06,8.06,0,0,0-1.79,2.64,9.27,9.27,0,0,0,0,6.92,7.93,7.93,0,0,0,1.8,2.64,8.13,8.13,0,0,0,2.65,1.68,9.34,9.34,0,0,0,6.48,0,7.71,7.71,0,0,0,2.3-1.45,5.38,5.38,0,0,0,1.18-1.55,9.05,9.05,0,0,0,.77-2.09h-7.67Z"/><path class="b" d="M290.25,112.2V87.8h4.47v24.4Z"/><path class="b" d="M308.82,95a9.36,9.36,0,0,1,3.56.66,8.19,8.19,0,0,1,4.63,4.65,9.9,9.9,0,0,1,0,7.16,8.44,8.44,0,0,1-1.83,2.81,8.68,8.68,0,0,1-2.8,1.84,9.93,9.93,0,0,1-7.12,0,8.53,8.53,0,0,1-2.79-1.84,8.31,8.31,0,0,1-1.84-2.81,9.9,9.9,0,0,1,0-7.16,8.27,8.27,0,0,1,4.63-4.65A9.36,9.36,0,0,1,308.82,95Zm0,13.66a4.26,4.26,0,0,0,1.65-.33,4.07,4.07,0,0,0,1.42-.93,4.47,4.47,0,0,0,1-1.5,5.79,5.79,0,0,0,0-4,4.47,4.47,0,0,0-1-1.5,4.24,4.24,0,0,0-1.42-.94,4.47,4.47,0,0,0-3.32,0,4.22,4.22,0,0,0-1.39.94,4.49,4.49,0,0,0-1,1.5,5.79,5.79,0,0,0,0,4,4.49,4.49,0,0,0,1,1.5,4,4,0,0,0,1.39.93A4.25,4.25,0,0,0,308.82,108.62Z"/><path class="b" d="M322.92,87.8h4.47v7.33l-.28,2.38h.28a5.05,5.05,0,0,1,1.91-1.8,6.29,6.29,0,0,1,3.2-.75,7.28,7.28,0,0,1,3.05.66,8.23,8.23,0,0,1,2.55,1.84,8.74,8.74,0,0,1,1.75,2.81,10.18,10.18,0,0,1,0,7.16,8.74,8.74,0,0,1-1.75,2.81,8.39,8.39,0,0,1-2.55,1.84,7.28,7.28,0,0,1-3.05.66,6.29,6.29,0,0,1-3.2-.75,5.05,5.05,0,0,1-1.91-1.8h-.28v2h-4.19Zm8.66,20.82a4.35,4.35,0,0,0,1.68-.34,4.5,4.5,0,0,0,2.41-2.46,5.16,5.16,0,0,0,.37-2,5.21,5.21,0,0,0-.37-2,4.67,4.67,0,0,0-1-1.5,4.6,4.6,0,0,0-1.42-1,4.17,4.17,0,0,0-1.68-.34,4.61,4.61,0,0,0-1.69.32,4.2,4.2,0,0,0-1.41.94,4.67,4.67,0,0,0-1,1.5,5.51,5.51,0,0,0,0,4,4.67,4.67,0,0,0,1,1.5,4,4,0,0,0,1.41.93A4.43,4.43,0,0,0,331.58,108.62Z"/><path class="b" d="M361.73,108.18a9.49,9.49,0,0,1-3.12,3.3,8.68,8.68,0,0,1-4.79,1.26,9.23,9.23,0,0,1-3.52-.66,8.45,8.45,0,0,1-4.67-4.67,9.36,9.36,0,0,1-.67-3.56,9.13,9.13,0,0,1,.65-3.42,8.7,8.7,0,0,1,4.55-4.76,8.5,8.5,0,0,1,3.49-.71,9.18,9.18,0,0,1,3.58.66,7.3,7.3,0,0,1,2.62,1.84,7.82,7.82,0,0,1,1.6,2.78,10.52,10.52,0,0,1,.55,3.47v.41a2.73,2.73,0,0,0,0,.38,2.13,2.13,0,0,0,0,.37H349.36a4.8,4.8,0,0,0,.56,1.76,4.47,4.47,0,0,0,1.06,1.22,4.14,4.14,0,0,0,1.38.72,5.29,5.29,0,0,0,1.53.22,4.32,4.32,0,0,0,2.54-.7,5.09,5.09,0,0,0,1.58-1.75Zm-4.06-6.48a2.81,2.81,0,0,0-.29-1,3.43,3.43,0,0,0-.75-1,3.94,3.94,0,0,0-1.22-.78,4.65,4.65,0,0,0-1.76-.31,4.13,4.13,0,0,0-2.52.82,4.36,4.36,0,0,0-1.53,2.28Z"/></svg>